<?xml version="1.0" encoding="UTF-8"?>
<svg version="1.1" xmlns="http://www.w3.org/2000/svg" width="3333" height="3333">
<path d="M0 0 C1.11798981 -0.00100708 2.23597961 -0.00201416 3.3878479 -0.00305176 C20.11405367 0.00714395 36.39735016 0.57421954 52.9375 3.25 C53.90429688 3.39453613 54.87109375 3.53907227 55.8671875 3.68798828 C116.03789505 12.69563896 175.19072739 37.45472135 222.9375 75.25 C223.84113281 75.95382812 224.74476562 76.65765625 225.67578125 77.3828125 C228.12154794 79.30978019 230.53463652 81.26982725 232.9375 83.25 C233.90558594 84.0440625 234.87367187 84.838125 235.87109375 85.65625 C254.16317032 100.80726292 271.32423285 117.49006218 285.9375 136.25 C286.4030127 136.83765137 286.86852539 137.42530273 287.34814453 138.03076172 C288.95008834 140.05478067 290.53896536 142.08849399 292.125 144.125 C292.95547852 145.17977539 292.95547852 145.17977539 293.80273438 146.25585938 C296.94484931 150.33591907 299.69018164 154.44984744 302.21484375 158.94140625 C307.19262287 168.56778268 307.19262287 168.56778268 315.21484375 175.30175781 C320.05146594 176.46779922 324.83734257 176.38112145 329.78271484 176.22900391 C342.78930777 176.35573935 356.63629259 185.97524163 365.9375 194.25 C366.96810547 195.13945313 366.96810547 195.13945313 368.01953125 196.046875 C381.89460936 208.85463941 389.62074253 227.62728725 390.9375 246.25 C391.01871094 247.33667969 391.01871094 247.33667969 391.1015625 248.4453125 C391.85007568 268.51907514 384.06173895 287.36583781 371.37890625 302.671875 C357.12505889 317.72393782 338.42537273 326.20842971 317.71875 327.375 C295.98543817 327.93950161 276.99148966 320.274465 261.21875 305.5 C247.01583054 291.49164108 238.87568629 274.03933013 238.55688477 253.95483398 C238.59361791 235.03407277 242.51331308 217.45129893 255.84765625 203.21484375 C256.20730469 202.56644531 256.56695313 201.91804688 256.9375 201.25 C255.82833386 197.77645481 254.24932295 195.02355565 252.1015625 192.09765625 C251.53808105 191.32824707 250.97459961 190.55883789 250.39404297 189.76611328 C249.78963379 188.9564209 249.18522461 188.14672852 248.5625 187.3125 C247.62301514 186.04768799 247.62301514 186.04768799 246.66455078 184.75732422 C233.47998598 167.17679271 218.52400624 150.66505645 201.9375 136.25 C201.04345459 135.46399414 201.04345459 135.46399414 200.13134766 134.66210938 C152.03590441 92.61056594 89.47293486 66.65382493 25.9375 61.25 C25.26412598 61.19215332 24.59075195 61.13430664 23.89697266 61.07470703 C-55.64121672 54.53865002 -135.65699053 81.50514706 -196.49682617 132.75097656 C-199.38172407 135.21766269 -202.23010957 137.72328661 -205.0625 140.25 C-205.64193359 140.76626953 -206.22136719 141.28253906 -206.81835938 141.81445312 C-212.62716677 147.01723622 -218.34069236 152.2279994 -223.34765625 158.2265625 C-225.38124837 160.62610855 -227.53513092 162.89393551 -229.6875 165.1875 C-260.20881589 198.7238395 -281.57198766 240.88140322 -293.953125 284.23046875 C-294.20101776 285.09726761 -294.44891052 285.96406647 -294.70431519 286.85713196 C-295.9429605 291.20538915 -297.16020098 295.5582247 -298.34619141 299.92114258 C-298.7906348 301.52036042 -299.23513101 303.11956359 -299.6796875 304.71875 C-299.87620911 305.46541428 -300.07273071 306.21207855 -300.27520752 306.98136902 C-300.85498047 309.04492187 -300.85498047 309.04492187 -302.0625 312.25 C-306.22380292 313.63710097 -308.74523076 311.96291857 -312.5625 310.27734375 C-314.0958279 309.62076089 -315.62919529 308.96427026 -317.16259766 308.30786133 C-317.96336731 307.96091217 -318.76413696 307.61396301 -319.58917236 307.25650024 C-339.44026164 298.67600732 -339.44026164 298.67600732 -360.0625 292.25 C-360.81047852 292.05905762 -361.55845703 291.86811523 -362.32910156 291.67138672 C-378.83046243 287.56157476 -395.02569219 285.8341279 -412 285.875 C-412.85422546 285.87554382 -413.70845093 285.87608765 -414.58856201 285.87664795 C-436.32356932 285.94003602 -456.40119251 289.51065246 -477.0625 296.25 C-477.76777832 296.47913086 -478.47305664 296.70826172 -479.19970703 296.94433594 C-501.81671084 304.46695994 -523.03110649 316.6803393 -541.0625 332.25 C-541.83078125 332.90871094 -542.5990625 333.56742188 -543.390625 334.24609375 C-555.1439156 344.57761533 -566.01142732 355.46475181 -575.0625 368.25 C-575.46388184 368.80703613 -575.86526367 369.36407227 -576.27880859 369.93798828 C-614.84115801 423.80309972 -615.83874876 483.06959018 -609.0625 546.25 C-618.97208335 545.02892241 -628.76394269 543.46312177 -638.57980347 541.64825439 C-692.55548809 531.743136 -745.89852074 535.77629732 -796.0625 559.25 C-796.77841309 559.58112793 -797.49432617 559.91225586 -798.23193359 560.25341797 C-830.91658718 575.50006163 -860.87291857 598.76066398 -883.0625 627.25 C-883.82691406 628.18585937 -884.59132813 629.12171875 -885.37890625 630.0859375 C-925.79317542 680.55512115 -942.13466464 746.51544385 -935.421875 810.20703125 C-929.44061898 860.8526665 -907.52688659 909.55981636 -872.48046875 946.6796875 C-870.40975646 948.8808647 -868.44448793 951.12587099 -866.5 953.4375 C-828.25573241 997.26093133 -765.38933147 1021.47856818 -708.67529297 1025.80834961 C-705.47256008 1026.01643677 -702.27002431 1026.14241009 -699.0625 1026.25 C-697.91523437 1026.29125 -696.76796875 1026.3325 -695.5859375 1026.375 C-629.57650087 1027.5458991 -566.96146715 1001.17696655 -519.62939453 955.79394531 C-515.73232311 951.9539516 -512.0945584 947.87731227 -508.45263672 943.79736328 C-506.01853289 941.08795864 -503.53791731 938.42160793 -501.0625 935.75 C-497.21949351 931.59214478 -493.38588128 927.42590626 -489.5625 923.25 C-484.25050184 917.44892738 -478.91655644 911.66830859 -473.57861328 905.89111328 C-471.07235896 903.17822414 -468.56749554 900.46405141 -466.0625 897.75 C-465.06250676 896.66666043 -464.06250676 895.58332709 -463.0625 894.5 C-462.32 893.695625 -462.32 893.695625 -461.5625 892.875 C-457.06250001 888.00000001 -457.06250001 888.00000001 -455.56225586 886.37475586 C-454.56304262 885.29226129 -453.56385638 884.20974179 -452.56469727 883.12719727 C-450.05288165 880.40582492 -447.54058667 877.68489805 -445.02734375 874.96484375 C-440.19619408 869.73524875 -435.3706505 864.50075622 -430.5625 859.25 C-425.25045792 853.44896736 -419.91655666 847.66830883 -414.57861328 841.89111328 C-412.07235896 839.17822414 -409.56749554 836.46405141 -407.0625 833.75 C-406.06250676 832.66666043 -405.06250676 831.58332709 -404.0625 830.5 C-403.32 829.695625 -403.32 829.695625 -402.5625 828.875 C-398.0625 824 -398.0625 824 -396.56225586 822.37475586 C-395.56304262 821.29226129 -394.56385638 820.20974179 -393.56469727 819.12719727 C-391.05288165 816.40582492 -388.54058667 813.68489805 -386.02734375 810.96484375 C-381.19619408 805.73524875 -376.3706505 800.50075622 -371.5625 795.25 C-366.25045792 789.44896736 -360.91655666 783.66830883 -355.57861328 777.89111328 C-353.07235896 775.17822414 -350.56749554 772.46405141 -348.0625 769.75 C-347.06250676 768.66666043 -346.06250676 767.58332709 -345.0625 766.5 C-344.32 765.695625 -344.32 765.695625 -343.5625 764.875 C-339.0625 760 -339.0625 760 -337.56225586 758.37475586 C-336.56304262 757.29226129 -335.56385638 756.20974179 -334.56469727 755.12719727 C-332.05288165 752.40582492 -329.54058667 749.68489805 -327.02734375 746.96484375 C-322.19619408 741.73524875 -317.3706505 736.50075622 -312.5625 731.25 C-307.25045792 725.44896736 -301.91655666 719.66830883 -296.57861328 713.89111328 C-294.07235896 711.17822415 -291.56747855 708.46406708 -289.0625 705.75 C-286.05147128 702.48764315 -283.04014474 699.22556408 -280.02734375 695.96484375 C-275.19619408 690.73524875 -270.3706505 685.50075622 -265.5625 680.25 C-260.25045792 674.44896736 -254.91655666 668.66830883 -249.57861328 662.89111328 C-247.07235896 660.17822414 -244.56749554 657.46405141 -242.0625 654.75 C-241.06250676 653.66666043 -240.06250676 652.58332709 -239.0625 651.5 C-238.32 650.695625 -238.32 650.695625 -237.5625 649.875 C-233.0625 645 -233.0625 645 -231.56225586 643.37475586 C-230.56304262 642.29226129 -229.56385638 641.20974179 -228.56469727 640.12719727 C-226.05288165 637.40582492 -223.54058667 634.68489805 -221.02734375 631.96484375 C-216.19619408 626.73524875 -211.3706505 621.50075622 -206.5625 616.25 C-201.25045792 610.44896736 -195.91655666 604.66830883 -190.57861328 598.89111328 C-188.07235896 596.17822414 -185.56749554 593.46405141 -183.0625 590.75 C-182.06250676 589.66666043 -181.06250676 588.58332709 -180.0625 587.5 C-179.32 586.695625 -179.32 586.695625 -178.5625 585.875 C-174.0625 581 -174.0625 581 -172.56225586 579.37475586 C-171.56304262 578.29226129 -170.56385638 577.20974179 -169.56469727 576.12719727 C-167.05288165 573.40582492 -164.54058667 570.68489805 -162.02734375 567.96484375 C-157.19619408 562.73524875 -152.3706505 557.50075622 -147.5625 552.25 C-142.25045792 546.44896736 -136.91655666 540.66830883 -131.57861328 534.89111328 C-129.07235896 532.17822414 -126.56749554 529.46405141 -124.0625 526.75 C-123.06250676 525.66666043 -122.06250676 524.58332709 -121.0625 523.5 C-120.32 522.695625 -120.32 522.695625 -119.5625 521.875 C-118.0625 520.25 -116.5625 518.625 -115.0625 517 C-114.56669434 516.46286377 -114.07088867 515.92572754 -113.56005859 515.37231445 C-112.56825078 514.29788294 -111.57638952 513.22350076 -110.58447266 512.14916992 C-107.95867319 509.30505818 -105.33403012 506.45988985 -102.7109375 503.61328125 C-102.16308594 503.01902344 -101.61523438 502.42476562 -101.05078125 501.8125 C-99.99835693 500.67088717 -98.94625819 499.52897408 -97.89453125 498.38671875 C-95.97903406 496.30942206 -94.0607768 494.2482768 -92.0625 492.25 C-92.2693686 488.21606225 -93.58774276 484.73957253 -95 481 C-101.84651165 462.40238472 -100.56665086 442.19903451 -92.5 424.12109375 C-82.60953436 404.36703873 -66.59804544 390.40654743 -45.8359375 383.1171875 C-24.92027811 377.18244117 -3.0472596 379.74938159 15.9375 390.25 C20.22618786 392.8929866 24.11639913 395.97313389 27.9375 399.25 C28.66324219 399.86359375 29.38898438 400.4771875 30.13671875 401.109375 C43.9189184 413.78141712 52.26151176 433.14137922 53.22265625 451.6484375 C53.82675335 471.86843031 48.09500354 491.00748291 34.625 506.375 C33.07907818 508.01577938 31.51693898 509.64145913 29.9375 511.25 C29.26074219 511.95125 28.58398438 512.6525 27.88671875 513.375 C14.60166464 526.18469436 -3.91537499 532.43385443 -22.125 532.4375 C-22.96337402 532.44539551 -23.80174805 532.45329102 -24.66552734 532.46142578 C-29.76262666 532.45263936 -34.21650736 531.86334645 -39.1875 530.625 C-43.55298601 529.86294916 -43.55298601 529.86294916 -47.36328125 531.81640625 C-49.31304999 533.98004359 -51.05360417 536.21546255 -52.76513672 538.56982422 C-55.2908256 541.84076717 -58.21344314 544.76224054 -61.0625 547.75 C-64.938186 551.87972858 -68.78918892 556.02614431 -72.5625 560.25 C-76.89148161 565.0939534 -81.32604516 569.83493644 -85.76513672 574.57763672 C-90.32712323 579.45415826 -94.84947078 584.36473963 -99.35546875 589.29296875 C-102.22740669 592.4333317 -105.11258448 595.56137033 -108 598.6875 C-108.74745483 599.49682983 -108.74745483 599.49682983 -109.51000977 600.32250977 C-111.53407784 602.51375365 -113.55855171 604.70462243 -115.58300781 606.89550781 C-120.91947495 612.67124684 -126.25185718 618.45049542 -131.5625 624.25 C-136.87454208 630.05103264 -142.20844334 635.83169117 -147.54638672 641.60888672 C-150.05264104 644.32177586 -152.55750446 647.03594859 -155.0625 649.75 C-156.06249324 650.83333957 -157.06249324 651.91667291 -158.0625 653 C-158.805 653.804375 -158.805 653.804375 -159.5625 654.625 C-164.06249999 659.49999999 -164.06249999 659.49999999 -165.56274414 661.12524414 C-166.56195738 662.20773871 -167.56114362 663.29025821 -168.56030273 664.37280273 C-171.07211835 667.09417508 -173.58441333 669.81510195 -176.09765625 672.53515625 C-180.92880592 677.76475125 -185.7543495 682.99924378 -190.5625 688.25 C-195.87454208 694.05103264 -201.20844334 699.83169117 -206.54638672 705.60888672 C-209.05264104 708.32177586 -211.55750446 711.03594859 -214.0625 713.75 C-215.06249324 714.83333957 -216.06249324 715.91667291 -217.0625 717 C-217.805 717.804375 -217.805 717.804375 -218.5625 718.625 C-235.0625 736.5 -235.0625 736.5 -236.56274414 738.12524414 C-237.56195738 739.20773871 -238.56114362 740.29025821 -239.56030273 741.37280273 C-242.07211835 744.09417508 -244.58441333 746.81510195 -247.09765625 749.53515625 C-251.92880592 754.76475125 -256.7543495 759.99924378 -261.5625 765.25 C-266.87454208 771.05103264 -272.20844334 776.83169117 -277.54638672 782.60888672 C-280.05264104 785.32177586 -282.55750446 788.03594859 -285.0625 790.75 C-286.06249324 791.83333957 -287.06249324 792.91667291 -288.0625 794 C-288.805 794.804375 -288.805 794.804375 -289.5625 795.625 C-294.06249999 800.49999999 -294.06249999 800.49999999 -295.56274414 802.12524414 C-296.56195738 803.20773871 -297.56114362 804.29025821 -298.56030273 805.37280273 C-301.07211835 808.09417508 -303.58441333 810.81510195 -306.09765625 813.53515625 C-310.92880592 818.76475125 -315.7543495 823.99924378 -320.5625 829.25 C-325.87454208 835.05103264 -331.20844334 840.83169117 -336.54638672 846.60888672 C-339.05264104 849.32177586 -341.55750446 852.03594859 -344.0625 854.75 C-345.06249324 855.83333957 -346.06249324 856.91667291 -347.0625 858 C-347.805 858.804375 -347.805 858.804375 -348.5625 859.625 C-353.0625 864.5 -353.0625 864.5 -354.56274414 866.12524414 C-355.56195738 867.20773871 -356.56114362 868.29025821 -357.56030273 869.37280273 C-360.07211835 872.09417508 -362.58441333 874.81510195 -365.09765625 877.53515625 C-369.92880592 882.76475125 -374.7543495 887.99924378 -379.5625 893.25 C-384.87454208 899.05103264 -390.20844334 904.83169117 -395.54638672 910.60888672 C-398.05264104 913.32177586 -400.55750446 916.03594859 -403.0625 918.75 C-404.06249324 919.83333957 -405.06249324 920.91667291 -406.0625 922 C-406.805 922.804375 -406.805 922.804375 -407.5625 923.625 C-412.0625 928.5 -412.0625 928.5 -413.56274414 930.12524414 C-414.56195738 931.20773871 -415.56114362 932.29025821 -416.56030273 933.37280273 C-419.07211835 936.09417508 -421.58441333 938.81510195 -424.09765625 941.53515625 C-428.92880592 946.76475125 -433.7543495 951.99924378 -438.5625 957.25 C-443.87454208 963.05103264 -449.20844334 968.83169117 -454.54638672 974.60888672 C-456.55320391 976.7811613 -458.55918657 978.95420475 -460.56469727 981.12768555 C-461.56320771 982.20920175 -462.56239427 983.29009413 -463.56225586 984.37036133 C-466.0779557 987.08993725 -468.58122626 989.81926486 -471.0625 992.5703125 C-481.77308133 1004.40391799 -493.35594704 1014.60794849 -506.0625 1024.25 C-506.65401855 1024.70375 -507.24553711 1025.1575 -507.85498047 1025.625 C-551.42817709 1058.95890972 -604.62934306 1079.32685524 -659.0625 1085.25 C-659.90627197 1085.3442627 -660.75004395 1085.43852539 -661.61938477 1085.53564453 C-738.25422054 1093.04136038 -818.65299384 1071.48612868 -879.0625 1023.25 C-880.07570313 1022.44820312 -881.08890625 1021.64640625 -882.1328125 1020.8203125 C-888.31058502 1015.84711958 -894.211286 1010.60043442 -900.0625 1005.25 C-901.04476562 1004.37214844 -902.02703125 1003.49429688 -903.0390625 1002.58984375 C-909.47226801 996.82069789 -915.41480646 990.79791315 -921.0625 984.25 C-921.98348878 983.21405519 -922.9054139 982.17894229 -923.828125 981.14453125 C-962.40909869 937.52736146 -987.56208816 880.9348232 -995.0625 823.25 C-995.14756805 822.60328339 -995.23263611 821.95656677 -995.32028198 821.29025269 C-997.01299813 808.07760536 -997.42638715 794.99855744 -997.375 781.6875 C-997.37284485 780.67809357 -997.3706897 779.66868713 -997.36846924 778.62869263 C-997.31498778 762.98103869 -996.79651273 747.6936101 -994.0625 732.25 C-993.86382324 731.10934082 -993.66514648 729.96868164 -993.46044922 728.79345703 C-988.88042963 703.26542273 -981.51733741 678.97335295 -971.0625 655.25 C-970.5679834 654.11643066 -970.5679834 654.11643066 -970.06347656 652.95996094 C-952.01727429 611.93920267 -922.34775941 573.00773741 -887.0625 545.25 C-885.89663181 544.29647438 -884.7326746 543.34060897 -883.5703125 542.3828125 C-875.08315939 535.42294503 -866.34809472 529.10109636 -857.0625 523.25 C-856.46501953 522.87278809 -855.86753906 522.49557617 -855.25195312 522.10693359 C-802.69093457 489.1920938 -736.35850939 469.45762457 -674.0625 476.25 C-674.02286133 475.61312256 -673.98322266 474.97624512 -673.94238281 474.32006836 C-670.60859626 422.82595919 -655.04176531 373.99266262 -624.0625 332.25 C-623.58570801 331.60498535 -623.10891602 330.9599707 -622.61767578 330.29541016 C-615.99606882 321.42101986 -608.74339548 313.21602801 -601.0625 305.25 C-600.44713379 304.60740234 -599.83176758 303.96480469 -599.19775391 303.30273438 C-590.37396159 294.12933254 -581.35511793 285.74194242 -571.0625 278.25 C-570.39605469 277.76047852 -569.72960938 277.27095703 -569.04296875 276.76660156 C-554.45456432 266.09595509 -539.40195409 256.97469138 -523.0625 249.25 C-522.44358887 248.95383789 -521.82467773 248.65767578 -521.18701172 248.35253906 C-496.31235861 236.55631181 -469.34320802 229.49382827 -442.0625 226.25 C-441.27278809 226.15428711 -440.48307617 226.05857422 -439.66943359 225.95996094 C-430.77848732 225.01371871 -421.86901367 225.00647426 -412.9375 225 C-411.67811111 224.99898788 -411.67811111 224.99898788 -410.39328003 224.99795532 C-388.74421859 225.02546954 -368.27370233 227.72567392 -347.23120117 232.83862305 C-344.77540845 233.3742433 -344.77540845 233.3742433 -341.0625 233.25 C-340.81717529 232.66847168 -340.57185059 232.08694336 -340.3190918 231.48779297 C-325.40578141 196.28948801 -307.40053132 163.85672693 -283.0625 134.25 C-282.63340332 133.71793945 -282.20430664 133.18587891 -281.76220703 132.63769531 C-273.93118111 122.97412248 -265.20270329 114.1810359 -256.4375 105.375 C-255.8607251 104.79295807 -255.2839502 104.21091614 -254.68969727 103.61123657 C-247.46945081 96.34010178 -240.1101656 89.60681288 -232.0625 83.25 C-230.92300329 82.29783034 -229.78695928 81.34149461 -228.65625 80.37890625 C-174.41137624 35.00349627 -105.72485471 9.41559132 -36.0625 1.25 C-35.19439697 1.1454248 -34.32629395 1.04084961 -33.43188477 0.93310547 C-22.33979967 -0.19743981 -11.1368451 0.00694031 0 0 Z " fill="#0095FF" transform="translate(1622.0625,1085.75)"/>
<path d="M0 0 C15.92893383 12.58473777 27.34505909 30.36124258 29.828125 50.796875 C31.18656213 73.17647021 27.01394655 94.09584903 12.01171875 111.49609375 C-2.86421736 127.17038063 -20.40548771 136.49738919 -42.171875 137.796875 C-62.80317364 138.19192141 -81.75116451 131.70522159 -97.171875 117.796875 C-97.85636719 117.20519531 -98.54085937 116.61351562 -99.24609375 116.00390625 C-103.5565489 112.03219021 -106.85118794 107.61311963 -110.046875 102.734375 C-110.6193396 101.8678833 -110.6193396 101.8678833 -111.20336914 100.98388672 C-113.69160157 97.03695811 -114.96802477 93.27683673 -116.171875 88.796875 C-125.37136504 88.88245116 -134.57069434 88.97774597 -143.76996422 89.08440208 C-148.04469145 89.1336801 -152.31940167 89.17999553 -156.59423828 89.21875 C-194.00255414 89.55018289 -194.00255414 89.55018289 -231.109375 93.984375 C-232.96985474 94.30583496 -232.96985474 94.30583496 -234.86791992 94.63378906 C-298.04381126 105.98385708 -364.72182661 137.78779447 -406.66796875 188.0390625 C-408.25318973 189.89191819 -409.93080653 191.59024525 -411.671875 193.296875 C-414.10577232 195.68740667 -416.38543059 198.14733762 -418.609375 200.734375 C-421.64867151 204.26322263 -424.88204347 207.52692527 -428.19921875 210.79296875 C-430.74525329 213.37933651 -433.09209057 216.1122278 -435.45703125 218.86328125 C-437.6723488 221.36119056 -440.0408567 223.67712489 -442.421875 226.015625 C-444.25429987 227.88077174 -445.96540635 229.81615246 -447.671875 231.796875 C-450.45426832 235.02643867 -453.38206929 238.03010153 -456.421875 241.015625 C-458.25429987 242.88077174 -459.96540635 244.81615246 -461.671875 246.796875 C-464.45426832 250.02643867 -467.38206929 253.03010153 -470.421875 256.015625 C-472.25429987 257.88077174 -473.96540635 259.81615246 -475.671875 261.796875 C-477.9174544 264.40335109 -480.21739012 266.88622021 -482.671875 269.296875 C-485.10577232 271.68740667 -487.38543059 274.14733762 -489.609375 276.734375 C-492.64867151 280.26322263 -495.88204347 283.52692527 -499.19921875 286.79296875 C-501.74525329 289.37933651 -504.09209057 292.1122278 -506.45703125 294.86328125 C-508.6723488 297.36119056 -511.0408567 299.67712489 -513.421875 302.015625 C-515.25429987 303.88077174 -516.96540635 305.81615246 -518.671875 307.796875 C-521.45426832 311.02643867 -524.38206929 314.03010153 -527.421875 317.015625 C-529.25429987 318.88077174 -530.96540635 320.81615246 -532.671875 322.796875 C-535.45426832 326.02643867 -538.38206929 329.03010153 -541.421875 332.015625 C-543.25429987 333.88077174 -544.96540635 335.81615246 -546.671875 337.796875 C-548.9174544 340.40335109 -551.21739012 342.88622021 -553.671875 345.296875 C-556.10577232 347.68740667 -558.38543059 350.14733762 -560.609375 352.734375 C-563.64867151 356.26322263 -566.88204347 359.52692527 -570.19921875 362.79296875 C-572.74525329 365.37933651 -575.09209057 368.1122278 -577.45703125 370.86328125 C-579.6723488 373.36119056 -582.0408567 375.67712489 -584.421875 378.015625 C-586.25429987 379.88077174 -587.96540635 381.81615246 -589.671875 383.796875 C-592.45426832 387.02643867 -595.38206929 390.03010153 -598.421875 393.015625 C-600.25429987 394.88077174 -601.96540635 396.81615246 -603.671875 398.796875 C-606.45426832 402.02643867 -609.38206929 405.03010153 -612.421875 408.015625 C-614.25429987 409.88077174 -615.96540635 411.81615246 -617.671875 413.796875 C-619.9174544 416.40335109 -622.21739012 418.88622021 -624.671875 421.296875 C-627.10577232 423.68740667 -629.38543059 426.14733762 -631.609375 428.734375 C-634.64867151 432.26322263 -637.88204347 435.52692527 -641.19921875 438.79296875 C-643.74525329 441.37933651 -646.09209057 444.1122278 -648.45703125 446.86328125 C-650.6723488 449.36119056 -653.0408567 451.67712489 -655.421875 454.015625 C-657.25429987 455.88077174 -658.96540635 457.81615246 -660.671875 459.796875 C-663.45426832 463.02643867 -666.38206929 466.03010153 -669.421875 469.015625 C-671.25429987 470.88077174 -672.96540635 472.81615246 -674.671875 474.796875 C-677.45426832 478.02643867 -680.38206929 481.03010153 -683.421875 484.015625 C-685.25429987 485.88077174 -686.96540635 487.81615246 -688.671875 489.796875 C-690.9174544 492.40335109 -693.21739012 494.88622021 -695.671875 497.296875 C-698.10577232 499.68740667 -700.38543059 502.14733762 -702.609375 504.734375 C-705.64867151 508.26322263 -708.88204347 511.52692527 -712.19921875 514.79296875 C-714.74525329 517.37933651 -717.09209057 520.1122278 -719.45703125 522.86328125 C-721.6723488 525.36119056 -724.0408567 527.67712489 -726.421875 530.015625 C-728.25429987 531.88077174 -729.96540635 533.81615246 -731.671875 535.796875 C-734.45426832 539.02643867 -737.38206929 542.03010153 -740.421875 545.015625 C-742.25429987 546.88077174 -743.96540635 548.81615246 -745.671875 550.796875 C-748.45426832 554.02643867 -751.38206929 557.03010153 -754.421875 560.015625 C-756.25429987 561.88077174 -757.96540635 563.81615246 -759.671875 565.796875 C-762.45426832 569.02643867 -765.38206929 572.03010153 -768.421875 575.015625 C-770.25429987 576.88077174 -771.96540635 578.81615246 -773.671875 580.796875 C-775.9174544 583.40335109 -778.21739012 585.88622021 -780.671875 588.296875 C-783.10577232 590.68740667 -785.38543059 593.14733762 -787.609375 595.734375 C-790.64867151 599.26322263 -793.88204347 602.52692527 -797.19921875 605.79296875 C-799.74525329 608.37933651 -802.09209057 611.1122278 -804.45703125 613.86328125 C-806.6723488 616.36119056 -809.0408567 618.67712489 -811.421875 621.015625 C-813.25429987 622.88077174 -814.96540635 624.81615246 -816.671875 626.796875 C-819.45426832 630.02643867 -822.38206929 633.03010153 -825.421875 636.015625 C-827.25429987 637.88077174 -828.96540635 639.81615246 -830.671875 641.796875 C-832.9174544 644.40335109 -835.21739012 646.88622021 -837.671875 649.296875 C-840.20211306 651.79849046 -842.65799741 654.34685913 -845.046875 656.984375 C-845.90925781 657.93376953 -845.90925781 657.93376953 -846.7890625 658.90234375 C-848.27874629 660.94329471 -848.85427235 662.30071666 -849.171875 664.796875 C-848.54099652 667.14013794 -847.86918306 669.4725148 -847.171875 671.796875 C-846.73632335 674.49729525 -846.38663437 677.08170301 -846.171875 679.796875 C-846.11773438 680.45042969 -846.06359375 681.10398437 -846.0078125 681.77734375 C-845.35938603 697.48694857 -850.9801158 712.59344788 -861.421875 724.234375 C-871.67315657 735.08856913 -885.74091049 742.48279058 -900.78515625 743.09765625 C-919.13935007 743.32713188 -934.23995719 739.33494469 -947.890625 726.23828125 C-959.8673284 713.42074764 -965.82168969 698.50764621 -965.4140625 680.95703125 C-964.07722303 663.51343238 -956.94808923 649.43050096 -944.171875 637.796875 C-935.10050045 630.64495072 -922.90849902 624.53135341 -911.1328125 624.8671875 C-901.92966155 625.23726993 -901.92966155 625.23726993 -893.79296875 621.56640625 C-891.02332031 618.7736453 -888.57519281 615.90827605 -886.171875 612.796875 C-884.93002881 611.37305531 -883.6810015 609.95543629 -882.421875 608.546875 C-881.88046875 607.91265625 -881.3390625 607.2784375 -880.78125 606.625 C-878.60815715 604.15653531 -876.26715131 601.88152137 -873.921875 599.578125 C-872.08945013 597.71297826 -870.37834365 595.77759754 -868.671875 593.796875 C-865.88948168 590.56731133 -862.96168071 587.56364847 -859.921875 584.578125 C-858.08945013 582.71297826 -856.37834365 580.77759754 -854.671875 578.796875 C-851.88948168 575.56731133 -848.96168071 572.56364847 -845.921875 569.578125 C-844.08945013 567.71297826 -842.37834365 565.77759754 -840.671875 563.796875 C-838.4262956 561.19039891 -836.12635988 558.70752979 -833.671875 556.296875 C-831.23797768 553.90634333 -828.95831941 551.44641238 -826.734375 548.859375 C-823.69507849 545.33052737 -820.46170653 542.06682473 -817.14453125 538.80078125 C-814.59849671 536.21441349 -812.25165943 533.4815222 -809.88671875 530.73046875 C-807.6714012 528.23255944 -805.3028933 525.91662511 -802.921875 523.578125 C-801.08945013 521.71297826 -799.37834365 519.77759754 -797.671875 517.796875 C-794.88948168 514.56731133 -791.96168071 511.56364847 -788.921875 508.578125 C-787.08945013 506.71297826 -785.37834365 504.77759754 -783.671875 502.796875 C-781.4262956 500.19039891 -779.12635988 497.70752979 -776.671875 495.296875 C-774.23797768 492.90634333 -771.95831941 490.44641238 -769.734375 487.859375 C-766.69507849 484.33052737 -763.46170653 481.06682473 -760.14453125 477.80078125 C-757.59849671 475.21441349 -755.25165943 472.4815222 -752.88671875 469.73046875 C-750.6714012 467.23255944 -748.3028933 464.91662511 -745.921875 462.578125 C-744.08945013 460.71297826 -742.37834365 458.77759754 -740.671875 456.796875 C-737.88948168 453.56731133 -734.96168071 450.56364847 -731.921875 447.578125 C-730.08945013 445.71297826 -728.37834365 443.77759754 -726.671875 441.796875 C-723.88948168 438.56731133 -720.96168071 435.56364847 -717.921875 432.578125 C-716.08945013 430.71297826 -714.37834365 428.77759754 -712.671875 426.796875 C-710.4262956 424.19039891 -708.12635988 421.70752979 -705.671875 419.296875 C-703.23797768 416.90634333 -700.95831941 414.44641238 -698.734375 411.859375 C-695.69507849 408.33052737 -692.46170653 405.06682473 -689.14453125 401.80078125 C-686.59849671 399.21441349 -684.25165943 396.4815222 -681.88671875 393.73046875 C-679.6714012 391.23255944 -677.3028933 388.91662511 -674.921875 386.578125 C-673.08945013 384.71297826 -671.37834365 382.77759754 -669.671875 380.796875 C-666.88948168 377.56731133 -663.96168071 374.56364847 -660.921875 371.578125 C-659.08945013 369.71297826 -657.37834365 367.77759754 -655.671875 365.796875 C-652.88948168 362.56731133 -649.96168071 359.56364847 -646.921875 356.578125 C-645.08945013 354.71297826 -643.37834365 352.77759754 -641.671875 350.796875 C-639.4262956 348.19039891 -637.12635988 345.70752979 -634.671875 343.296875 C-632.23797768 340.90634333 -629.95831941 338.44641238 -627.734375 335.859375 C-624.69507849 332.33052737 -621.46170653 329.06682473 -618.14453125 325.80078125 C-615.59849671 323.21441349 -613.25165943 320.4815222 -610.88671875 317.73046875 C-608.6714012 315.23255944 -606.3028933 312.91662511 -603.921875 310.578125 C-602.08945013 308.71297826 -600.37834365 306.77759754 -598.671875 304.796875 C-595.88948168 301.56731133 -592.96168071 298.56364847 -589.921875 295.578125 C-588.08945013 293.71297826 -586.37834365 291.77759754 -584.671875 289.796875 C-582.4262956 287.19039891 -580.12635988 284.70752979 -577.671875 282.296875 C-575.23797768 279.90634333 -572.95831941 277.44641238 -570.734375 274.859375 C-567.69507849 271.33052737 -564.46170653 268.06682473 -561.14453125 264.80078125 C-558.59849671 262.21441349 -556.25165943 259.4815222 -553.88671875 256.73046875 C-551.6714012 254.23255944 -549.3028933 251.91662511 -546.921875 249.578125 C-545.08945013 247.71297826 -543.37834365 245.77759754 -541.671875 243.796875 C-538.88948168 240.56731133 -535.96168071 237.56364847 -532.921875 234.578125 C-531.08945013 232.71297826 -529.37834365 230.77759754 -527.671875 228.796875 C-524.88948168 225.56731133 -521.96168071 222.56364847 -518.921875 219.578125 C-517.08945013 217.71297826 -515.37834365 215.77759754 -513.671875 213.796875 C-511.4262956 211.19039891 -509.12635988 208.70752979 -506.671875 206.296875 C-504.23797768 203.90634333 -501.95831941 201.44641238 -499.734375 198.859375 C-496.69507849 195.33052737 -493.46170653 192.06682473 -490.14453125 188.80078125 C-487.59849671 186.21441349 -485.25165943 183.4815222 -482.88671875 180.73046875 C-480.6714012 178.23255944 -478.3028933 175.91662511 -475.921875 173.578125 C-474.08945013 171.71297826 -472.37834365 169.77759754 -470.671875 167.796875 C-467.88948168 164.56731133 -464.96168071 161.56364847 -461.921875 158.578125 C-460.08945013 156.71297826 -458.37834365 154.77759754 -456.671875 152.796875 C-453.88394258 149.56088201 -450.9513337 146.55091399 -447.90234375 143.5625 C-446.16585228 141.79072992 -444.57903874 139.94657127 -442.984375 138.046875 C-438.16905495 132.48250517 -432.66891469 127.66713106 -427.171875 122.796875 C-426.6473877 122.32765625 -426.12290039 121.8584375 -425.58251953 121.375 C-368.92901417 70.84666689 -296.2592254 39.07405744 -220.83532715 31.08319092 C-219.22338818 30.90991062 -217.61252221 30.72546499 -216.00434875 30.52015686 C-207.08577172 29.507597 -198.17287464 29.78318284 -189.21534157 29.90329742 C-183.04284185 29.97458562 -176.86984042 29.98001801 -170.69699574 29.99715042 C-165.28965658 30.01586275 -159.88441299 30.05821292 -154.4777832 30.14990234 C-149.21881713 30.23777779 -143.96294108 30.26208817 -138.70331383 30.24352264 C-136.70853188 30.24781259 -134.71365715 30.2750028 -132.71952248 30.3259964 C-122.64290757 31.01328068 -122.64290757 31.01328068 -113.59850693 27.53788757 C-110.60689735 24.02160143 -109.03049895 19.99703942 -107.171875 15.796875 C-81.09813827 -17.82166087 -34.80906134 -24.17772241 0 0 Z " fill="#0179FF" transform="translate(2338.171875,1433.203125)"/>
<path d="M0 0 C14.73415945 12.39215571 23.2338232 30.20267687 26.03125 49.06640625 C27.74423082 70.30736841 22.63279867 89.85115707 9.25 106.5546875 C-3.88773022 121.79723013 -21.86950451 132.37926903 -42.14697266 134.16015625 C-64.19096259 135.47352001 -84.344129 129.96375179 -101.19799805 115.29516602 C-108.85569544 108.25095392 -115.40799839 99.46261337 -119.65625 89.94140625 C-119.65625 89.28140625 -119.65625 88.62140625 -119.65625 87.94140625 C-372.10625 87.94140625 -624.55625 87.94140625 -884.65625 87.94140625 C-883.53153345 82.31782348 -883.53153345 82.31782348 -880.98828125 79.69921875 C-880.43205078 79.11591797 -879.87582031 78.53261719 -879.30273438 77.93164062 C-878.69751953 77.31611328 -878.09230469 76.70058594 -877.46875 76.06640625 C-876.18333635 74.72550712 -874.89818735 73.38435424 -873.61328125 72.04296875 C-872.62448975 71.02058105 -872.62448975 71.02058105 -871.61572266 69.97753906 C-868.59091401 66.83439128 -865.62506635 63.63732904 -862.65625 60.44140625 C-861.49644309 59.19759083 -860.3362852 57.95410259 -859.17578125 56.7109375 C-858.59908691 56.09299316 -858.02239258 55.47504883 -857.42822266 54.83837891 C-855.61384714 52.89601217 -853.79738045 50.95561937 -851.98046875 49.015625 C-851.37138672 48.36464844 -850.76230469 47.71367188 -850.13476562 47.04296875 C-848.99490902 45.82480138 -847.85436015 44.60728114 -846.71289062 43.390625 C-846.18244141 42.8234375 -845.65199219 42.25625 -845.10546875 41.671875 C-844.58467184 41.12724608 -844.06387493 40.58261716 -843.5272963 40.02148434 C-841.58634547 37.92679889 -841.58634547 37.92679889 -839.78106669 35.43286166 C-834.35748917 28.5131291 -834.35748917 28.5131291 -829.9054349 27.01696019 C-826.70363772 26.67099821 -823.63337957 26.6354245 -820.4136343 26.71092796 C-819.19943926 26.69938952 -817.98524423 26.68785108 -816.7342554 26.67596298 C-813.36881039 26.65407704 -810.00909431 26.67689741 -806.64419958 26.71874432 C-802.98254469 26.75318969 -799.32118774 26.72935943 -795.65947157 26.71296942 C-789.2442129 26.69225636 -782.82988264 26.70862497 -776.41473198 26.7493515 C-766.87586846 26.80974052 -757.33758944 26.81270627 -747.79856961 26.80393161 C-731.75219796 26.79079622 -715.70623826 26.8241923 -699.6599865 26.88410568 C-683.77216491 26.94327547 -667.8845149 26.98176496 -651.99658394 26.99263382 C-651.00873734 26.99332122 -650.02089074 26.99400861 -649.0031094 26.99471684 C-643.98633816 26.99810017 -638.96956677 27.00111401 -633.95279521 27.0039856 C-598.41869005 27.0249899 -562.884809 27.09236383 -527.35083008 27.18701172 C-492.83000887 27.27885485 -458.30924899 27.3496915 -423.78833008 27.39208984 C-422.72425195 27.39340511 -421.66017382 27.39472037 -420.5638509 27.39607549 C-409.87794378 27.40926068 -399.19203619 27.42201882 -388.50612819 27.43446408 C-366.73768916 27.45982623 -344.96925413 27.48803875 -323.20082092 27.51797485 C-321.69950393 27.5200342 -321.69950393 27.5200342 -320.16785731 27.52213516 C-253.33056166 27.61414229 -186.49339035 27.77259438 -119.65625 27.94140625 C-119.36290771 27.01416748 -119.06956543 26.08692871 -118.76733398 25.1315918 C-113.28145715 9.38033877 -98.14685588 -3.08478444 -83.90625 -10.48828125 C-55.51829086 -24.11772754 -24.46209176 -18.95812111 0 0 Z " fill="#0564FF" transform="translate(2682.65625,1886.05859375)"/>
<path d="M0 0 C14.94417978 12.85601998 26.27222271 29.90517153 27.84570312 50.00708008 C28.71361205 72.60764914 25.21073043 92.83138234 9.625 110.1875 C8.89667969 111.00863281 8.16835937 111.82976563 7.41796875 112.67578125 C-7.16233571 128.19827017 -26.89599191 135.83365258 -47.9375 136.5625 C-69.33302857 135.81576683 -88.36506803 127.4463529 -103.375 112.1875 C-108.11757966 106.83878753 -111.87048547 101.38723724 -115.375 95.1875 C-116.44714721 95.18576375 -117.51929441 95.1840275 -118.62393093 95.18223864 C-165.91937673 95.10558468 -213.21482036 95.02773111 -260.51025391 94.9438324 C-261.22731642 94.94256072 -261.94437894 94.94128904 -262.68317062 94.93997882 C-278.27030487 94.91232857 -293.85743873 94.88446536 -309.44457221 94.85638306 C-317.08951291 94.84261097 -324.7344537 94.8288859 -332.37939453 94.81518555 C-333.14012093 94.81382146 -333.90084733 94.81245738 -334.68462604 94.81105196 C-359.30129196 94.76693301 -383.91796185 94.72591303 -408.53463574 94.68651587 C-433.85082621 94.64598271 -459.16700934 94.60229165 -484.48318754 94.55467889 C-488.06643853 94.54794124 -491.64968958 94.54123935 -495.23294067 94.53455925 C-495.93811242 94.53324352 -496.64328416 94.53192779 -497.36982474 94.5305722 C-508.67929102 94.50956237 -519.98876011 94.49183967 -531.29823381 94.47537469 C-542.69340715 94.45871376 -554.0885688 94.43844541 -565.48373026 94.41483159 C-571.64756392 94.40216157 -577.81139005 94.39100153 -583.97523308 94.38408089 C-589.63509592 94.37769124 -595.29493249 94.3667696 -600.9547807 94.3524667 C-602.98614693 94.34809344 -605.01751737 94.34528547 -607.04888809 94.34433801 C-625.83376884 94.33391384 -644.75737546 94.16102791 -663.4375 92 C-664.53562012 91.87399414 -665.63374023 91.74798828 -666.76513672 91.61816406 C-716.70832315 85.49523729 -768.89315872 69.72295556 -811.375 42.1875 C-809.05658778 37.91342034 -806.08744501 34.55105084 -802.75 31.0625 C-798.98971692 27.06723453 -795.36373082 23.04073432 -791.9375 18.75 C-787.7727377 13.55170294 -783.2931449 8.70181432 -778.71508789 3.86938477 C-778.18133545 3.30405029 -777.64758301 2.73871582 -777.09765625 2.15625 C-776.62078369 1.65544922 -776.14391113 1.15464844 -775.65258789 0.63867188 C-774.15665971 -0.99541912 -774.15665971 -0.99541912 -772.375 -3.8125 C-768.617968 -3.21009603 -765.649772 -2.12369345 -762.26171875 -0.40625 C-761.27373291 0.08593018 -760.28574707 0.57811035 -759.26782227 1.08520508 C-758.21006592 1.6139624 -757.15230957 2.14271973 -756.0625 2.6875 C-722.50172027 19.06426302 -685.68625371 29.37908932 -648.375 32.1875 C-647.32047905 32.26987378 -646.26595811 32.35224756 -645.17948198 32.43711752 C-633.7702527 33.24358506 -622.40953241 33.3253457 -610.97546387 33.30775452 C-608.84563226 33.30819137 -606.71580071 33.30906836 -604.58596945 33.31034368 C-598.77310474 33.3125663 -592.96025866 33.30859813 -587.14739633 33.30356562 C-580.86404693 33.29922906 -574.5806985 33.30070981 -568.29734802 33.3014679 C-557.42416605 33.3019911 -546.55099098 33.29890068 -535.67781067 33.29323006 C-524.28107169 33.28730169 -512.88433511 33.28346183 -501.4875946 33.28237724 C-500.77749854 33.2823085 -500.06740248 33.28223976 -499.33578835 33.28216894 C-495.72918865 33.28183058 -492.12258895 33.28152921 -488.51598924 33.28124207 C-463.00756542 33.27914477 -437.49914472 33.27241615 -411.99072266 33.26293945 C-387.21826189 33.25374684 -362.44580198 33.24666724 -337.67333984 33.24243164 C-336.52682045 33.24223435 -336.52682045 33.24223435 -335.35713904 33.24203308 C-327.68086881 33.24071449 -320.00459856 33.23943869 -312.32832831 33.23819422 C-296.692559 33.23565838 -281.05678974 33.23283713 -265.42102051 33.22984314 C-264.34279174 33.2296372 -264.34279174 33.2296372 -263.24278057 33.22942711 C-215.28685239 33.22023513 -167.33092604 33.20437007 -119.375 33.1875 C-118.8598584 32.11371094 -118.3447168 31.03992187 -117.81396484 29.93359375 C-117.11336819 28.49719458 -116.41233566 27.06100796 -115.7109375 25.625 C-115.37441162 24.92052734 -115.03788574 24.21605469 -114.69116211 23.49023438 C-105.64763478 5.08511897 -89.45402526 -5.91345275 -70.8203125 -13.203125 C-46.67665617 -20.83875796 -19.95627848 -15.2092451 0 0 Z " fill="#075BFF" transform="translate(2451.375,2111.8125)"/>
<path d="M0 0 C14.58999863 12.40514026 24.72156665 28.05464764 27.6875 47.1875 C29.38783029 68.90997183 26.47842925 88.85951762 12.8125 106.5 C11.45903918 108.08119419 10.08404482 109.64422627 8.6875 111.1875 C7.67236328 112.34185547 7.67236328 112.34185547 6.63671875 113.51953125 C-7.14880102 128.3131329 -25.96043932 134.87683532 -45.69140625 136.3671875 C-65.47349625 137.02294739 -83.82388669 129.62968911 -98.5625 116.75 C-106.39935543 109.39674799 -110.98453158 102.9554421 -116.3125 93.1875 C-239.0725 92.8575 -361.8325 92.5275 -488.3125 92.1875 C-486.69914855 88.96079709 -485.70204861 87.31061802 -483.328125 84.82421875 C-482.72991943 84.19249756 -482.13171387 83.56077637 -481.51538086 82.90991211 C-480.54870483 81.90263062 -480.54870483 81.90263062 -479.5625 80.875 C-478.19378518 79.43250535 -476.82530078 77.98979204 -475.45703125 76.546875 C-474.76303223 75.81791016 -474.0690332 75.08894531 -473.35400391 74.33789062 C-470.2985988 71.11952084 -467.27421653 67.87264264 -464.25 64.625 C-463.67950928 64.01462891 -463.10901855 63.40425781 -462.52124023 62.77539062 C-459.57055781 59.61801487 -456.63210286 56.45034229 -453.7109375 53.265625 C-453.11031494 52.61408447 -452.50969238 51.96254395 -451.89086914 51.29125977 C-450.7715435 50.07660652 -449.65570406 48.85872372 -448.54467773 47.63647461 C-447.49324126 46.49837506 -446.42560274 45.37501605 -445.34179193 44.26770246 C-443.87373848 42.76281873 -442.43524931 41.22890395 -441.01592892 39.67797339 C-435.13911758 33.69964699 -431.11083116 31.04724559 -422.67424756 30.89668691 C-421.48453105 30.92581533 -420.29481454 30.95494374 -419.06904602 30.98495483 C-417.77741191 30.97641059 -416.48577779 30.96786634 -415.15500325 30.95906317 C-411.59861499 30.93686362 -408.04527903 30.97646062 -404.48927939 31.02684379 C-400.64418139 31.07025891 -396.79923858 31.05539872 -392.95396423 31.04782104 C-386.30154841 31.04259176 -379.65011765 31.07381363 -372.9979496 31.13019943 C-363.38035605 31.21166777 -353.76323605 31.23753371 -344.14533486 31.25007935 C-328.53908447 31.27193502 -312.93335845 31.3384002 -297.32739258 31.43310547 C-282.17279676 31.52497563 -267.01834367 31.5957204 -251.86352539 31.63818359 C-250.46098541 31.64212445 -250.46098541 31.64212445 -249.03011129 31.64614491 C-244.33909079 31.65919582 -239.64806928 31.67183278 -234.9570471 31.68426394 C-196.07516437 31.78783566 -157.19386688 31.96388283 -118.3125 32.1875 C-118.01013428 31.25502441 -117.70776855 30.32254883 -117.39624023 29.36181641 C-111.13434721 11.02049335 -95.68067252 -1.89567543 -78.8125 -10.1875 C-52.366278 -21.4946733 -22.71813128 -17.2601091 0 0 Z " fill="#0170FF" transform="translate(2497.3125,1653.8125)"/>
</svg>
